<?xml version="1.0" encoding="UTF-8" standalone="no" ?>
<!DOCTYPE svg PUBLIC "-//W3C//DTD SVG 1.1//EN" "http://www.w3.org/Graphics/SVG/1.1/DTD/svg11.dtd">
<svg xmlns="http://www.w3.org/2000/svg" xmlns:xlink="http://www.w3.org/1999/xlink" version="1.1" width="1080" height="1080" viewBox="0 0 1080 1080" xml:space="preserve">
<desc>Created with Fabric.js 5.2.4</desc>
<defs>
</defs>
<g transform="matrix(1 0 0 1 540 540)" id="ad80eb62-4de2-49f8-865d-5a078fdc158e"  >
<rect style="stroke: none; stroke-width: 1; stroke-dasharray: none; stroke-linecap: butt; stroke-dashoffset: 0; stroke-linejoin: miter; stroke-miterlimit: 4; fill: rgb(255,255,255); fill-rule: nonzero; opacity: 1; visibility: hidden;" vector-effect="non-scaling-stroke"  x="-540" y="-540" rx="0" ry="0" width="1080" height="1080" />
</g>
<g transform="matrix(1 0 0 1 540 540)" id="3f8b587d-09a5-48a2-a39f-80557ac041c6"  >
</g>
<g transform="matrix(1 0 0 1 540 540)"  >
<g style="" vector-effect="non-scaling-stroke"   >
		<g transform="matrix(0.13 0 0 -0.13 0 0)"  >
<path style="stroke: none; stroke-width: 1; stroke-dasharray: none; stroke-linecap: butt; stroke-dashoffset: 0; stroke-linejoin: miter; stroke-miterlimit: 4; fill: rgb(131,86,190); fill-rule: nonzero; opacity: 1;" vector-effect="non-scaling-stroke"  transform=" translate(-5119.55, -5109.82)" d="M 1212 8843 C 1205 8840 1192 8824 1183 8807 C 1156 8756 1160 8401 1189 8213 C 1273 7661 1498 7257 1852 7020 C 2047 6889 2247 6817 2535 6774 C 2584 6767 2583 6767 2465 6748 C 2198 6707 2022 6649 1830 6539 C 1633 6426 1538 6360 1545 6341 C 1558 6305 1649 6163 1723 6062 C 2050 5619 2531 5381 2952 5455 C 2999 5463 3064 5478 3098 5489 L 3159 5508 L 3166 5463 C 3173 5412 3165 5301 3149 5231 C 3132 5163 3077 5051 3035 5003 C 2993 4954 2999 4951 3090 4975 C 3175 4997 3283 5055 3344 5111 L 3398 5160 L 3343 5033 C 3279 4885 3218 4707 3195 4600 C 3172 4494 3164 4270 3180 4157 C 3212 3923 3318 3684 3458 3534 L 3496 3493 L 3507 3584 C 3520 3692 3566 3838 3628 3973 C 3653 4026 3674 4069 3675 4068 C 3677 4066 3670 4022 3660 3970 C 3616 3743 3609 3435 3645 3235 C 3667 3108 3719 2964 3776 2868 C 3832 2775 3975 2623 4059 2567 C 4112 2532 4134 2526 4112 2552 C 4092 2577 4022 2726 3987 2820 C 3944 2935 3920 3057 3921 3154 L 3921 3225 L 3944 3150 C 3957 3109 3976 3053 3988 3025 C 4032 2918 4328 2342 4368 2283 C 4424 2200 4522 2104 4617 2038 C 4700 1980 4810 1916 4816 1922 C 4820 1926 4781 2004 4648 2260 C 4560 2428 4504 2565 4485 2660 L 4477 2695 L 4519 2645 C 4695 2436 4860 2110 4935 1825 C 4958 1737 4965 1542 4948 1448 C 4940 1405 4935 1370 4937 1370 C 4939 1370 4967 1381 5000 1394 C 5148 1454 5295 1588 5417 1773 C 5473 1858 5503 1891 5566 1941 C 5778 2109 5936 2303 6058 2546 C 6149 2727 6254 3007 6309 3215 C 6318 3248 6319 3237 6314 3155 C 6304 2943 6266 2765 6190 2565 C 6168 2506 6151 2455 6154 2453 C 6157 2450 6204 2492 6258 2546 C 6459 2746 6547 2938 6584 3262 C 6609 3473 6602 3721 6564 3950 L 6558 3985 L 6581 3950 C 6642 3854 6720 3628 6720 3543 C 6720 3525 6724 3510 6729 3510 C 6741 3510 6849 3652 6892 3725 C 6984 3879 7042 4021 7076 4172 C 7100 4278 7100 4527 7076 4639 C 7051 4757 6988 4934 6925 5068 C 6895 5129 6874 5180 6876 5180 C 6879 5180 6899 5171 6921 5159 C 7022 5108 7188 5087 7302 5111 L 7354 5123 L 7318 5141 C 7266 5168 7167 5262 7127 5323 C 7094 5373 7050 5477 7050 5504 C 7050 5515 7071 5511 7138 5490 C 7352 5421 7560 5426 7797 5505 C 8118 5612 8357 5812 8590 6167 C 8684 6310 8709 6358 8693 6368 C 8688 6372 8618 6416 8538 6467 C 8253 6647 8095 6707 7813 6745 C 7748 6754 7691 6762 7685 6764 C 7680 6766 7709 6773 7750 6779 C 7876 6800 8020 6839 8125 6881 C 8734 7124 9071 7726 9074 8577 C 9075 8777 9074 8790 9054 8817 C 9031 8848 9011 8855 8974 8846 C 8946 8839 8921 8793 8835 8590 C 8727 8337 8623 8147 8523 8025 C 8464 7953 8329 7825 8264 7780 C 8141 7695 7991 7628 7846 7595 C 7651 7550 7324 7537 6993 7561 L 6837 7572 L 6783 7616 C 6573 7787 6291 7915 5990 7976 C 5680 8039 5470 8019 5289 7910 L 5226 7872 L 5176 7917 C 5071 8011 4899 8093 4740 8126 C 4674 8139 4627 8141 4520 8137 C 4311 8127 4311 8127 4432 8066 C 4489 8037 4563 7996 4596 7974 L 4658 7935 L 4436 7935 C 4247 7934 4200 7931 4113 7912 C 3853 7856 3619 7749 3450 7610 L 3405 7573 L 3250 7560 C 3053 7544 2722 7544 2605 7559 C 2406 7586 2272 7623 2139 7690 C 2016 7751 1942 7806 1830 7919 C 1661 8089 1565 8247 1390 8640 C 1311 8820 1270 8866 1212 8843 z M 1527 7946 C 1586 7856 1774 7669 1865 7608 C 2033 7497 2264 7407 2476 7369 C 2619 7344 2965 7333 3135 7348 C 3196 7353 3246 7356 3248 7355 C 3250 7353 3243 7335 3232 7313 C 3199 7249 3170 7150 3155 7051 C 3147 6999 3139 6955 3136 6953 C 3126 6943 2685 6972 2560 6990 C 2237 7037 1998 7149 1810 7339 C 1653 7497 1540 7695 1451 7967 C 1381 8178 1378 8204 1435 8101 C 1460 8054 1502 7985 1527 7946 z M 8815 8045 C 8756 7827 8691 7676 8596 7530 C 8479 7351 8339 7223 8158 7130 C 7937 7015 7725 6974 7249 6954 L 7093 6948 L 7085 7005 C 7076 7084 7034 7223 7000 7290 L 6971 7347 L 7228 7342 C 7597 7335 7798 7359 8028 7436 C 8370 7549 8677 7809 8806 8093 C 8822 8129 8836 8154 8838 8149 C 8840 8145 8830 8098 8815 8045 z M 6014 7758 C 6388 7685 6714 7434 6835 7126 L 6870 7037 L 6811 7093 C 6720 7180 6463 7336 6443 7317 C 6440 7314 6459 7285 6485 7253 C 6618 7090 6822 6749 6863 6621 C 6927 6422 6942 6185 6902 6012 C 6872 5881 6864 5873 6857 5967 C 6844 6135 6769 6328 6655 6485 C 6600 6561 6533 6642 6520 6648 C 6509 6653 6521 6516 6541 6405 C 6552 6345 6579 6223 6601 6135 C 6664 5881 6691 5663 6672 5570 C 6666 5545 6662 5535 6661 5547 C 6658 5608 6533 5866 6421 6045 C 6286 6259 6252 6343 6225 6530 C 6192 6763 6150 6887 6062 7017 C 6024 7074 5937 7160 5919 7160 C 5915 7160 5922 7135 5936 7104 C 6000 6958 6033 6716 6011 6559 C 5994 6449 5935 6274 5851 6086 C 5786 5942 5753 5858 5732 5780 L 5723 5745 L 5709 5790 C 5685 5868 5692 6041 5728 6249 C 5775 6517 5786 6648 5772 6772 C 5744 7023 5661 7206 5518 7333 C 5484 7364 5455 7388 5453 7386 C 5452 7385 5465 7348 5484 7304 C 5518 7223 5559 7090 5582 6985 C 5590 6946 5595 6856 5594 6730 C 5594 6551 5591 6527 5567 6435 C 5528 6292 5483 6180 5380 5977 L 5290 5798 L 5290 5912 C 5290 5979 5299 6076 5311 6150 C 5334 6287 5348 6652 5335 6737 L 5327 6785 L 5317 6750 C 5311 6731 5278 6623 5243 6510 C 5131 6152 5125 6123 5125 5910 C 5126 5751 5129 5714 5147 5645 C 5199 5457 5279 5311 5390 5206 C 5447 5153 5560 5078 5560 5094 C 5560 5096 5545 5123 5527 5153 C 5508 5184 5480 5246 5464 5292 C 5440 5362 5436 5390 5436 5475 C 5437 5561 5442 5589 5470 5672 C 5499 5759 5520 5789 5520 5742 C 5520 5705 5610 5543 5664 5483 C 5712 5430 5720 5416 5720 5382 C 5720 5324 5746 5194 5775 5109 C 5815 4993 5892 4850 6014 4666 C 6131 4490 6155 4449 6191 4358 C 6213 4304 6260 4144 6260 4125 C 6260 4120 6236 4159 6207 4212 C 6113 4388 6017 4486 5875 4555 C 5725 4627 5568 4637 5312 4590 C 5222 4573 5131 4560 5109 4560 C 5088 4560 5013 4571 4943 4585 C 4733 4626 4679 4631 4593 4620 C 4304 4581 4114 4440 3984 4165 C 3964 4124 3947 4090 3945 4090 C 3938 4090 3964 4217 3986 4289 C 4025 4416 4051 4468 4148 4613 C 4352 4917 4435 5110 4464 5353 L 4476 5455 L 4524 5367 C 4551 5318 4579 5258 4587 5232 C 4605 5174 4599 5035 4576 4970 C 4555 4914 4501 4819 4453 4756 L 4417 4708 L 4481 4740 C 4674 4838 4779 4954 4810 5103 L 4822 5161 L 4851 5099 C 4893 5011 4955 4928 5049 4835 C 5094 4791 5130 4758 5130 4760 C 5130 4763 5119 4798 5105 4838 C 5092 4878 5076 4941 5070 4978 C 5064 5015 5057 5054 5055 5066 C 5052 5080 5078 5059 5133 5005 C 5199 4939 5232 4915 5300 4882 C 5404 4832 5525 4800 5639 4794 L 5725 4789 L 5665 4822 C 5576 4871 5490 4932 5392 5014 C 5057 5295 4899 5625 4883 6081 C 4875 6301 4911 6590 4969 6765 C 4980 6798 4987 6826 4985 6828 C 4984 6830 4956 6792 4925 6745 C 4796 6552 4720 6293 4720 6052 C 4720 5977 4747 5621 4765 5450 C 4771 5396 4771 5395 4753 5417 C 4715 5465 4600 5679 4563 5775 C 4437 6092 4418 6387 4500 6762 C 4518 6847 4564 7003 4585 7053 C 4601 7090 4566 7067 4487 6988 C 4365 6865 4307 6746 4274 6549 C 4244 6368 4266 6048 4325 5816 C 4334 5784 4338 5755 4336 5753 C 4326 5743 4257 5851 4206 5955 C 4122 6126 4084 6264 4078 6422 C 4076 6459 4072 6486 4069 6482 C 4066 6478 4048 6432 4030 6380 C 3944 6132 3852 5926 3780 5820 C 3729 5745 3626 5651 3557 5616 C 3525 5600 3497 5589 3495 5592 C 3491 5596 3522 5650 3608 5790 C 3731 5986 3785 6190 3815 6565 C 3830 6759 3856 6892 3892 6963 C 3903 6985 3910 7004 3908 7006 C 3902 7011 3799 6876 3758 6808 C 3703 6718 3664 6610 3605 6380 C 3576 6267 3538 6137 3520 6091 C 3485 6000 3399 5866 3321 5780 L 3271 5725 L 3291 5778 C 3330 5885 3361 6029 3385 6220 C 3428 6558 3453 6645 3571 6883 C 3706 7155 3852 7342 4052 7500 C 4079 7522 4100 7540 4098 7540 C 4075 7540 3968 7499 3899 7465 C 3699 7364 3526 7195 3402 6980 L 3359 6905 L 3366 6960 C 3409 7309 3617 7540 3999 7665 C 4165 7720 4399 7748 4550 7733 L 4624 7725 L 4542 7677 C 4303 7539 4131 7276 4104 7009 C 4097 6936 4107 6823 4120 6836 C 4124 6841 4135 6870 4145 6900 C 4188 7033 4296 7212 4403 7327 C 4559 7494 4812 7627 5031 7656 L 5082 7663 L 5035 7599 C 4905 7422 4828 7147 4857 6965 L 4865 6915 L 4902 7030 C 5005 7349 5166 7563 5360 7640 C 5643 7752 6019 7518 6226 7100 C 6271 7009 6340 6821 6340 6788 C 6340 6778 6345 6772 6350 6775 C 6365 6784 6362 6999 6345 7077 C 6305 7267 6215 7433 6076 7578 C 5992 7665 5933 7710 5842 7756 L 5775 7791 L 5845 7784 C 5884 7781 5960 7769 6014 7758 z M 2677 6499 C 2783 6484 2921 6439 2999 6393 C 3066 6353 3140 6294 3140 6280 C 3140 6276 3121 6279 3098 6287 C 2978 6328 2867 6343 2680 6344 C 2519 6345 2474 6341 2330 6316 C 2186 6291 2149 6288 2035 6293 C 1840 6301 1836 6305 1967 6367 C 2125 6442 2245 6477 2430 6504 C 2485 6512 2603 6509 2677 6499 z M 7970 6481 C 8076 6457 8178 6420 8300 6363 C 8393 6318 8394 6317 8365 6308 C 8349 6303 8274 6296 8200 6293 C 8082 6289 8047 6291 7920 6315 C 7646 6366 7375 6359 7189 6297 C 7151 6284 7120 6277 7120 6281 C 7120 6285 7143 6309 7172 6335 C 7258 6412 7407 6474 7568 6500 C 7654 6514 7872 6503 7970 6481 z M 6252 5932 C 6230 5926 6153 5978 6116 6024 L 6080 6067 L 6102 6107 L 6124 6147 L 6194 6041 C 6239 5974 6260 5934 6252 5932 z M 2243 6020 C 2288 6015 2358 6010 2400 6010 L 2475 6009 L 2445 5985 C 2429 5971 2397 5954 2375 5947 L 2335 5933 L 2395 5911 C 2471 5882 2603 5873 2706 5889 C 2747 5896 2783 5900 2786 5898 C 2794 5889 2724 5816 2683 5789 C 2651 5770 2643 5760 2652 5754 C 2659 5749 2721 5744 2790 5742 C 2892 5739 2928 5742 2985 5759 C 3023 5770 3057 5776 3060 5773 C 3063 5770 3044 5749 3017 5725 C 2953 5667 2888 5645 2780 5646 C 2558 5648 2294 5776 2093 5980 C 2053 6020 2020 6056 2020 6060 C 2020 6063 2052 6058 2091 6048 C 2130 6038 2199 6026 2243 6020 z M 8200 6020 C 8042 5832 7770 5682 7527 5650 C 7378 5630 7259 5667 7200 5751 C 7178 5781 7178 5783 7196 5776 C 7278 5744 7461 5730 7563 5746 C 7598 5752 7616 5770 7586 5770 C 7568 5770 7450 5881 7450 5897 C 7450 5905 7459 5906 7488 5897 C 7508 5891 7584 5886 7655 5885 C 7757 5885 7797 5889 7840 5904 C 7913 5929 7918 5935 7873 5948 C 7852 5955 7822 5971 7805 5984 L 7775 6009 L 7843 6010 C 7943 6010 8088 6028 8161 6049 C 8196 6059 8229 6068 8233 6069 C 8238 6069 8223 6048 8200 6020 z M 4141 5703 C 4204 5635 4225 5549 4217 5386 C 4206 5173 4176 5094 3983 4770 C 3906 4641 3835 4522 3826 4505 L 3810 4475 L 3816 4515 C 3828 4594 3860 4708 3915 4865 C 3969 5019 4035 5259 4025 5268 C 4019 5274 3925 5195 3899 5162 C 3875 5131 3872 5134 3838 5220 C 3821 5265 3816 5302 3812 5419 C 3807 5574 3805 5568 3860 5529 C 3930 5482 4013 5486 4065 5540 C 4091 5567 4095 5579 4095 5628 C 4095 5663 4088 5698 4078 5719 C 4068 5738 4060 5755 4060 5757 C 4060 5767 4118 5729 4141 5703 z M 6038 5742 C 6048 5735 6048 5727 6040 5706 C 6025 5664 6028 5592 6047 5559 C 6065 5530 6131 5490 6163 5490 C 6197 5490 6256 5521 6296 5561 C 6337 5602 6337 5602 6344 5577 C 6347 5564 6353 5508 6356 5453 C 6362 5358 6354 5272 6329 5177 L 6319 5139 L 6256 5197 C 6194 5255 6120 5307 6120 5291 C 6120 5270 6175 5128 6237 4990 C 6334 4775 6390 4602 6390 4518 C 6390 4492 6117 4906 6056 5024 C 5974 5185 5940 5318 5940 5479 C 5940 5579 5950 5635 5977 5708 C 5993 5749 6010 5759 6038 5742 z M 6684 4967 C 6794 4803 6838 4682 6861 4474 C 6874 4357 6864 4231 6831 4100 L 6812 4025 L 6811 4081 C 6809 4180 6782 4300 6721 4481 C 6639 4727 6624 4798 6596 5062 C 6595 5077 6597 5087 6601 5085 C 6605 5082 6642 5029 6684 4967 z M 3547 4738 C 3544 4659 3534 4561 3526 4520 C 3505 4413 3419 4026 3416 4022 C 3412 4018 3392 4144 3384 4221 C 3376 4305 3395 4470 3425 4575 C 3457 4685 3535 4880 3547 4880 C 3550 4880 3550 4816 3547 4738 z M 4860 4375 C 4901 4366 4998 4357 5075 4354 C 5197 4349 5235 4351 5371 4374 C 5549 4404 5589 4405 5683 4385 C 5901 4339 6021 4178 6091 3835 C 6116 3713 6114 3500 6086 3413 C 6054 3314 5964 3231 5885 3230 C 5869 3230 5795 3259 5720 3294 C 5486 3406 5368 3433 5120 3433 C 4866 3434 4720 3401 4506 3294 C 4434 3259 4365 3230 4350 3230 C 4308 3230 4226 3275 4192 3316 C 4129 3392 4115 3447 4116 3615 C 4116 3742 4120 3781 4142 3870 C 4212 4152 4312 4301 4467 4360 C 4499 4372 4545 4386 4570 4390 C 4629 4402 4766 4394 4860 4375 z M 5331 3200 C 5430 3180 5583 3129 5614 3107 C 5628 3096 5624 3091 5579 3061 C 5336 2903 4974 2888 4695 3027 C 4592 3078 4588 3084 4641 3110 C 4842 3213 5101 3247 5331 3200 z M 5770 2668 C 5770 2606 5763 2567 5745 2517 C 5718 2438 5634 2301 5573 2232 L 5531 2185 L 5536 2220 C 5552 2314 5574 2391 5609 2476 C 5649 2572 5749 2750 5763 2750 C 5767 2750 5770 2713 5770 2668 z M 5190 2408 C 5303 2174 5294 1951 5167 1795 L 5143 1766 L 5158 1835 C 5189 1971 5177 2274 5134 2483 C 5124 2533 5140 2511 5190 2408 z" stroke-linecap="round" />
</g>
		<g transform="matrix(0.13 0 0 -0.13 -72.6 155.31)"  >
<path style="stroke: none; stroke-width: 1; stroke-dasharray: none; stroke-linecap: butt; stroke-dashoffset: 0; stroke-linejoin: miter; stroke-miterlimit: 4; fill: rgb(131,86,190); fill-rule: nonzero; opacity: 1;" vector-effect="non-scaling-stroke"  transform=" translate(-4575.08, -3945)" d="M 4519 4220 C 4465 4192 4405 4120 4380 4054 C 4341 3949 4366 3803 4438 3726 C 4471 3691 4555 3650 4595 3650 C 4647 3650 4726 3694 4756 3739 C 4802 3809 4799 3914 4748 3980 C 4737 3994 4699 4023 4662 4046 C 4576 4099 4555 4127 4555 4191 C 4555 4218 4555 4240 4555 4240 C 4555 4239 4539 4231 4519 4220 z" stroke-linecap="round" />
</g>
		<g transform="matrix(0.13 0 0 -0.13 72.36 155.13)"  >
<path style="stroke: none; stroke-width: 1; stroke-dasharray: none; stroke-linecap: butt; stroke-dashoffset: 0; stroke-linejoin: miter; stroke-miterlimit: 4; fill: rgb(131,86,190); fill-rule: nonzero; opacity: 1;" vector-effect="non-scaling-stroke"  transform=" translate(-5662.25, -3946.33)" d="M 5678 4198 C 5684 4144 5660 4100 5609 4069 C 5522 4016 5492 3990 5471 3948 C 5415 3831 5473 3691 5592 3659 C 5690 3633 5787 3688 5848 3804 C 5871 3848 5875 3867 5875 3945 C 5875 4023 5871 4042 5848 4086 C 5820 4139 5761 4198 5711 4224 C 5695 4233 5680 4240 5678 4240 C 5676 4240 5676 4221 5678 4198 z" stroke-linecap="round" />
</g>
</g>
</g>
<g transform="matrix(NaN NaN NaN NaN 0 0)"  >
<g style=""   >
</g>
</g>
<g transform="matrix(NaN NaN NaN NaN 0 0)"  >
<g style=""   >
</g>
</g>
<g transform="matrix(NaN NaN NaN NaN 0 0)"  >
<g style=""   >
</g>
</g>
<g transform="matrix(NaN NaN NaN NaN 0 0)"  >
<g style=""   >
</g>
</g>
<g transform="matrix(NaN NaN NaN NaN 0 0)"  >
<g style=""   >
</g>
</g>
<g transform="matrix(NaN NaN NaN NaN 0 0)"  >
<g style=""   >
</g>
</g>
</svg>