<?xml version="1.0" encoding="UTF-8" standalone="no" ?>
<!DOCTYPE svg PUBLIC "-//W3C//DTD SVG 1.1//EN" "http://www.w3.org/Graphics/SVG/1.1/DTD/svg11.dtd">
<svg xmlns="http://www.w3.org/2000/svg" xmlns:xlink="http://www.w3.org/1999/xlink" version="1.1" width="1080" height="1080" viewBox="0 0 1080 1080" xml:space="preserve">
<desc>Created with Fabric.js 5.2.4</desc>
<defs>
</defs>
<g transform="matrix(1 0 0 1 540 540)" id="a15a5fb5-bc31-43ce-ae8c-c475fb4ec92a"  >
<rect style="stroke: none; stroke-width: 1; stroke-dasharray: none; stroke-linecap: butt; stroke-dashoffset: 0; stroke-linejoin: miter; stroke-miterlimit: 4; fill: rgb(255,255,255); fill-rule: nonzero; opacity: 1; visibility: hidden;" vector-effect="non-scaling-stroke"  x="-540" y="-540" rx="0" ry="0" width="1080" height="1080" />
</g>
<g transform="matrix(1 0 0 1 540 540)" id="f6f1808c-6908-4d29-99e3-21787aeb6ce7"  >
</g>
<g transform="matrix(1 0 0 1 540 540)"  >
<g style="" vector-effect="non-scaling-stroke"   >
		<g transform="matrix(0.13 0 0 -0.13 0 0)"  >
<path style="stroke: none; stroke-width: 1; stroke-dasharray: none; stroke-linecap: butt; stroke-dashoffset: 0; stroke-linejoin: miter; stroke-miterlimit: 4; fill: rgb(249,249,246); fill-rule: nonzero; opacity: 1;" vector-effect="non-scaling-stroke"  transform=" translate(-5116.5, -5125.49)" d="M 4745 8819 C 4425 8794 4063 8717 3798 8618 L 3691 8578 L 3744 8506 C 3901 8294 4060 8014 4154 7785 C 4234 7587 4298 7347 4316 7176 L 4323 7107 L 4280 7113 C 4257 7116 4215 7130 4188 7144 C 4161 7158 4137 7170 4136 7170 C 4134 7170 4137 7149 4141 7123 C 4152 7056 4152 6856 4140 6787 C 4132 6738 4084 6610 4074 6610 C 4072 6610 4040 6622 4003 6636 C 3965 6650 3918 6668 3897 6676 L 3860 6689 L 3889 6652 C 3966 6556 4018 6380 4022 6200 L 4025 6085 L 3995 6086 C 3979 6086 3930 6090 3888 6093 L 3811 6099 L 3853 6037 C 3877 6003 3915 5926 3939 5867 C 3999 5719 4120 5527 4231 5406 C 4347 5279 4570 5160 4810 5096 L 4895 5073 L 4906 5004 C 4913 4966 4921 4913 4924 4885 C 4927 4858 4932 4819 4935 4800 C 4968 4568 4990 3972 4990 3315 L 4990 2755 L 4970 2780 C 4904 2862 4662 3212 4587 3333 C 4375 3675 4259 3991 4217 4345 L 4205 4445 L 4178 4389 C 4112 4249 4038 4222 3917 4294 C 3794 4367 3652 4581 3601 4771 C 3556 4938 3531 5229 3553 5338 L 3567 5410 L 3439 5285 C 3295 5144 3241 5110 3152 5110 C 3036 5110 2964 5184 2909 5360 C 2887 5429 2885 5452 2886 5635 C 2886 5813 2889 5849 2913 5961 C 2928 6030 2943 6096 2947 6106 C 2951 6116 2919 6095 2876 6058 C 2790 5985 2747 5960 2703 5960 C 2603 5960 2521 6028 2455 6165 C 2401 6275 2377 6360 2355 6520 C 2340 6623 2339 6659 2348 6750 C 2370 6965 2437 7164 2559 7380 C 2606 7463 2603 7463 2492 7388 C 2390 7319 2201 7128 2118 7010 C 1992 6832 1928 6676 1884 6440 C 1870 6366 1856 6294 1854 6282 C 1851 6269 1838 6247 1825 6234 C 1769 6178 1628 6216 1447 6335 L 1421 6352 L 1444 6293 C 1506 6137 1552 6034 1666 5794 C 1735 5650 1802 5500 1815 5459 C 1874 5286 1828 5184 1666 5130 C 1596 5107 1490 5091 1410 5090 L 1355 5090 L 1400 5052 C 1454 5008 1623 4856 1700 4783 C 1791 4698 1886 4624 1978 4567 C 2026 4537 2131 4470 2211 4417 C 2366 4315 2397 4283 2407 4212 C 2414 4163 2406 4156 2175 4014 L 1997 3905 L 2091 3897 C 2451 3868 2850 3808 2993 3759 C 3151 3707 3210 3660 3210 3589 C 3210 3543 3188 3516 3048 3389 C 2994 3340 2956 3300 2963 3300 C 2969 3300 3043 3309 3125 3320 C 3355 3350 3522 3355 3676 3336 C 4019 3294 4285 3159 4532 2901 C 4732 2693 4875 2431 4944 2149 C 4977 2009 4989 1918 4999 1705 C 5008 1502 5019 1461 5071 1435 C 5106 1416 5161 1420 5187 1442 C 5222 1470 5240 1532 5240 1625 C 5241 1870 5279 2142 5337 2304 C 5373 2407 5471 2604 5525 2685 C 5643 2859 5800 3014 5973 3124 C 6131 3224 6309 3294 6487 3326 C 6596 3345 6825 3350 6980 3337 C 7079 3328 7264 3303 7290 3295 C 7305 3290 7299 3296 7148 3432 C 7021 3547 7003 3605 7076 3670 C 7167 3750 7323 3793 7720 3849 C 7895 3874 7921 3876 8097 3891 C 8173 3897 8236 3903 8238 3904 C 8239 3906 8154 3961 8049 4026 C 7944 4091 7851 4155 7843 4167 C 7824 4195 7840 4257 7877 4301 C 7902 4330 8063 4440 8280 4576 C 8368 4631 8419 4673 8640 4875 C 8712 4941 8795 5016 8825 5041 L 8878 5087 L 8776 5094 C 8526 5110 8390 5193 8390 5328 C 8390 5394 8422 5475 8561 5762 C 8678 6003 8823 6330 8816 6337 C 8815 6339 8778 6320 8734 6295 C 8575 6204 8477 6186 8420 6238 C 8393 6262 8388 6277 8370 6385 C 8310 6742 8181 6989 7923 7241 C 7838 7325 7660 7473 7653 7467 C 7651 7465 7678 7403 7713 7329 C 7832 7079 7870 6955 7892 6753 C 7925 6436 7798 6068 7626 5986 C 7578 5963 7504 5962 7461 5984 C 7444 5993 7400 6025 7365 6055 C 7330 6085 7299 6110 7297 6110 C 7295 6110 7304 6064 7316 6008 C 7329 5952 7345 5861 7351 5806 C 7365 5682 7357 5465 7336 5385 C 7273 5158 7131 5049 6987 5119 C 6964 5130 6883 5199 6808 5272 C 6692 5384 6672 5400 6678 5375 C 6693 5309 6684 5038 6662 4925 C 6602 4617 6435 4331 6276 4265 C 6187 4228 6126 4258 6067 4368 C 6045 4408 6026 4440 6025 4438 C 6023 4436 6020 4401 6019 4360 C 6012 4129 5927 3831 5801 3595 C 5669 3350 5325 2820 5264 2769 C 5249 2757 5248 2812 5253 3455 C 5256 3840 5261 4171 5264 4190 C 5267 4209 5274 4302 5280 4395 C 5292 4596 5317 4941 5326 5023 C 5332 5072 5335 5080 5354 5080 C 5388 5080 5551 5127 5636 5162 C 5740 5204 5870 5279 5937 5337 C 6055 5437 6213 5668 6312 5883 C 6345 5956 6387 6034 6406 6057 C 6425 6080 6440 6100 6440 6102 C 6440 6105 6392 6100 6333 6093 C 6259 6083 6224 6082 6216 6090 C 6209 6097 6209 6140 6217 6232 C 6233 6417 6284 6573 6357 6661 C 6372 6679 6378 6691 6370 6688 C 6276 6650 6167 6609 6166 6612 C 6165 6614 6152 6642 6138 6675 C 6097 6769 6087 6843 6092 7009 L 6097 7158 L 6046 7137 C 6018 7126 5979 7116 5960 7116 L 5925 7115 L 5928 7175 C 5933 7293 5980 7511 6034 7667 C 6126 7928 6266 8193 6450 8450 C 6494 8511 6532 8565 6535 8570 C 6542 8581 6404 8633 6240 8680 C 5989 8753 5743 8798 5485 8820 C 5347 8831 4893 8831 4745 8819 z M 5341 8584 C 5336 8541 5326 8354 5320 8170 C 5292 7331 5296 7411 5279 7450 C 5240 7537 5237 7582 5244 7940 C 5250 8298 5259 8424 5285 8538 C 5299 8600 5335 8678 5345 8668 C 5348 8666 5346 8628 5341 8584 z M 4944 8572 C 4980 8384 5006 8041 5003 7785 C 5002 7644 4986 7537 4957 7470 C 4942 7437 4942 7443 4941 7595 C 4940 7683 4935 7847 4930 7960 C 4913 8352 4907 8660 4917 8660 C 4922 8660 4934 8620 4944 8572 z M 4589 8535 C 4678 8242 4740 7867 4742 7610 C 4743 7463 4727 7395 4717 7501 C 4710 7560 4672 7796 4605 8175 C 4576 8345 4550 8556 4551 8615 C 4551 8637 4553 8651 4555 8645 C 4557 8640 4572 8590 4589 8535 z M 5689 8557 C 5684 8530 5671 8447 5660 8372 C 5649 8297 5624 8147 5605 8040 C 5586 7933 5567 7828 5564 7805 C 5547 7678 5502 7477 5495 7494 C 5475 7541 5510 7881 5566 8177 C 5586 8285 5667 8570 5687 8603 C 5697 8620 5698 8603 5689 8557 z M 4272 8340 C 4400 8040 4505 7682 4517 7499 C 4525 7381 4507 7369 4485 7477 C 4458 7611 4388 7845 4317 8045 C 4282 8144 4236 8286 4216 8360 C 4195 8434 4172 8515 4164 8539 C 4156 8564 4150 8588 4151 8594 C 4151 8607 4215 8474 4272 8340 z M 6080 8493 C 6062 8439 6015 8303 5975 8190 C 5892 7956 5831 7751 5785 7547 C 5768 7470 5751 7411 5748 7416 C 5734 7439 5730 7511 5739 7570 C 5745 7606 5752 7653 5755 7675 C 5774 7797 5842 8024 5904 8173 C 5961 8308 6102 8601 6108 8596 C 6110 8593 6097 8547 6080 8493 z M 5133 7185 C 5220 7124 5352 7002 5440 6902 L 5513 6819 L 5534 6838 C 5545 6849 5588 6881 5628 6909 C 5696 6957 5700 6959 5700 6936 C 5700 6910 5677 6876 5611 6807 L 5566 6760 L 5616 6707 C 5687 6634 5781 6522 5820 6464 C 5838 6437 5855 6413 5856 6411 C 5858 6409 5865 6412 5872 6418 C 5898 6439 6013 6500 6018 6495 C 6024 6489 5957 6390 5930 6365 C 5919 6355 5910 6343 5910 6339 C 5910 6334 5932 6297 5959 6255 C 6009 6179 6041 6106 6055 6040 L 6062 6005 L 6044 6030 C 5975 6128 5856 6280 5850 6278 C 5843 6275 5682 6091 5607 5998 L 5558 5939 L 5602 5882 C 5675 5788 5820 5562 5820 5543 C 5820 5538 5807 5550 5792 5568 C 5735 5636 5515 5878 5509 5879 C 5506 5880 5472 5843 5434 5798 C 5396 5752 5338 5686 5305 5650 C 5272 5614 5226 5563 5202 5535 C 5166 5492 5161 5489 5170 5515 C 5200 5595 5294 5736 5427 5897 L 5459 5936 L 5285 6116 L 5112 6295 L 5048 6225 C 5013 6187 4941 6108 4887 6051 C 4789 5948 4789 5948 4808 5926 C 4921 5800 4979 5719 5049 5585 L 5092 5505 L 5011 5588 C 4966 5634 4903 5706 4870 5748 C 4838 5790 4798 5840 4782 5859 L 4754 5892 L 4688 5824 C 4652 5786 4594 5721 4560 5680 C 4481 5584 4461 5565 4487 5610 C 4597 5798 4647 5880 4668 5907 L 4692 5940 L 4599 6042 C 4547 6099 4478 6178 4446 6218 C 4414 6257 4386 6290 4385 6290 C 4383 6290 4344 6242 4299 6183 C 4254 6123 4215 6073 4213 6071 C 4212 6069 4208 6069 4205 6071 C 4198 6079 4246 6175 4300 6259 L 4352 6340 L 4301 6417 C 4271 6463 4250 6506 4250 6523 C 4250 6538 4252 6550 4254 6550 C 4256 6550 4289 6517 4328 6478 L 4399 6405 L 4421 6434 C 4434 6450 4476 6500 4515 6544 C 4553 6589 4607 6651 4634 6683 L 4682 6740 L 4611 6816 C 4572 6858 4540 6901 4540 6912 C 4540 6931 4541 6931 4578 6909 C 4598 6897 4642 6866 4674 6842 L 4734 6797 L 4779 6847 C 4804 6874 4881 6958 4949 7034 C 5057 7155 5071 7175 5068 7201 C 5065 7217 5065 7230 5066 7230 C 5068 7230 5098 7210 5133 7185 z M 8106 5988 C 8103 5970 8098 5920 8095 5877 C 8073 5572 7904 5140 7687 4835 C 7572 4672 7505 4593 7351 4440 C 7168 4257 7086 4194 6460 3755 C 6375 3695 6226 3588 6130 3517 L 5955 3388 L 6070 3505 C 6242 3680 6501 3899 6836 4149 C 7226 4442 7369 4585 7617 4930 C 7761 5129 7915 5417 7995 5635 C 8037 5747 8090 5947 8090 5991 C 8090 6007 8095 6020 8100 6020 C 8107 6020 8109 6007 8106 5988 z M 2216 5725 C 2342 5341 2545 4997 2851 4645 C 3015 4456 3147 4340 3510 4065 C 3639 3967 3792 3849 3850 3802 C 3955 3716 4294 3390 4286 3383 C 4284 3380 4254 3401 4220 3428 C 4187 3455 4075 3535 3972 3606 C 3312 4059 2942 4353 2746 4580 C 2543 4814 2399 5047 2291 5317 C 2248 5425 2185 5627 2170 5711 C 2164 5741 2158 5776 2155 5790 C 2152 5804 2147 5860 2145 5915 L 2140 6015 L 2165 5910 C 2178 5852 2202 5769 2216 5725 z" stroke-linecap="round" />
</g>
		<g transform="matrix(0.13 0 0 -0.13 -0.53 -219.27)"  >
<path style="stroke: none; stroke-width: 1; stroke-dasharray: none; stroke-linecap: butt; stroke-dashoffset: 0; stroke-linejoin: miter; stroke-miterlimit: 4; fill: rgb(249,249,246); fill-rule: nonzero; opacity: 1;" vector-effect="non-scaling-stroke"  transform=" translate(-5112.5, -6770)" d="M 5017 7016 C 4970 6961 4899 6879 4859 6835 L 4785 6755 L 4953 6588 L 5120 6422 L 5280 6588 C 5368 6679 5440 6759 5440 6766 C 5440 6772 5364 6854 5271 6948 L 5101 7118 L 5017 7016 z" stroke-linecap="round" />
</g>
		<g transform="matrix(0.13 0 0 -0.13 49.35 -163.27)"  >
<path style="stroke: none; stroke-width: 1; stroke-dasharray: none; stroke-linecap: butt; stroke-dashoffset: 0; stroke-linejoin: miter; stroke-miterlimit: 4; fill: rgb(249,249,246); fill-rule: nonzero; opacity: 1;" vector-effect="non-scaling-stroke"  transform=" translate(-5486.63, -6350)" d="M 5430 6628 C 5395 6588 5325 6513 5273 6462 C 5222 6411 5180 6366 5180 6362 C 5180 6358 5210 6325 5246 6290 C 5282 6254 5355 6174 5407 6113 C 5460 6051 5507 6000 5511 6000 C 5515 6000 5525 6008 5532 6018 C 5546 6038 5618 6126 5635 6144 C 5698 6210 5799 6344 5793 6353 C 5770 6393 5510 6700 5500 6700 C 5496 6700 5465 6667 5430 6628 z" stroke-linecap="round" />
</g>
		<g transform="matrix(0.13 0 0 -0.13 -49 -162.67)"  >
<path style="stroke: none; stroke-width: 1; stroke-dasharray: none; stroke-linecap: butt; stroke-dashoffset: 0; stroke-linejoin: miter; stroke-miterlimit: 4; fill: rgb(249,249,246); fill-rule: nonzero; opacity: 1;" vector-effect="non-scaling-stroke"  transform=" translate(-4749, -6345.5)" d="M 4599 6548 C 4532 6469 4468 6395 4457 6384 L 4438 6362 L 4592 6182 C 4676 6082 4747 6001 4750 6001 C 4753 6001 4774 6025 4798 6055 C 4822 6084 4890 6163 4950 6230 L 5060 6352 L 4897 6521 C 4808 6614 4732 6690 4728 6690 C 4725 6690 4667 6626 4599 6548 z" stroke-linecap="round" />
</g>
</g>
</g>
<g transform="matrix(NaN NaN NaN NaN 0 0)"  >
<g style=""   >
</g>
</g>
<g transform="matrix(NaN NaN NaN NaN 0 0)"  >
<g style=""   >
</g>
</g>
<g transform="matrix(NaN NaN NaN NaN 0 0)"  >
<g style=""   >
</g>
</g>
</svg>